<svg width="23" height="20" viewBox="0 0 23 20" fill="none" xmlns="http://www.w3.org/2000/svg">
<path d="M20.557 5.18078C20.5663 5.39198 20.5663 5.59358 20.5663 5.80478C20.5755 12.208 15.8711 19.6 7.26781 19.6C4.73036 19.6 2.23921 18.8416 0.0999756 17.4208C0.470406 17.4688 0.840837 17.488 1.21127 17.488C3.31346 17.488 5.36009 16.7584 7.01777 15.4048C5.01744 15.3664 3.2579 14.0128 2.64669 12.0352C3.3505 12.1792 4.07284 12.1504 4.75814 11.9488C2.58186 11.5072 1.01679 9.51999 1.00753 7.20639C1.00753 7.18719 1.00753 7.16799 1.00753 7.14879C1.65578 7.52319 2.38738 7.73439 3.12825 7.75359C1.08162 6.33278 0.442624 3.50077 1.68357 1.28317C4.06358 4.31678 7.56415 6.15038 11.324 6.35198C10.9443 4.67198 11.4629 2.90557 12.6761 1.71517C14.556 -0.118439 17.5195 -0.0224385 19.2975 1.92637C20.344 1.71517 21.3534 1.31197 22.2702 0.745564C21.9183 1.86877 21.1867 2.81917 20.2144 3.42397C21.1404 3.30877 22.048 3.04957 22.9 2.66557C22.2702 3.64477 21.4738 4.48958 20.557 5.18078Z" fill="#1D9BF0"/>
</svg>
